# xmcd
#
# Track frame offsets:
#	150
#	16350
#	31128
#	43766
#	52178
#	72082
#	79763
#	94714
#	112201
#	118717
#	132492
#	161499
#	173763
#	195258
#	210050
#	225371
#	256594
#	270899
#	282111
#	292096
#	310147
#
# Disc length: 4371 seconds
#
# Revision: 0
# Processed by: cddbd v1.5.2PL0 Copyright (c) Steve Scherf et al.
# Submitted via: dBpowerAMP V4.0
#
DISCID=17111115
DTITLE=Willie Nelson and Leon Russell - 1979-04-01 Capitol Theater, Passaic, NJ
DYEAR=1900
DGENRE=Country
TTITLE0=Whiskey River
TTITLE1=Stay A Little Longer
TTITLE2=Funny How Time Slips Away
TTITLE3=Crazy
TTITLE4=Night Life
TTITLE5=If You've Got The Money
TTITLE6=Sweet Memories
TTITLE7=Bloody Mary Morning
TTITLE8=I Gotta Get Drunk
TTITLE9=Shotgun Willie
TTITLE10=The Killing Has Just Begun
TTITLE11=Blue Eyes Crying In The Rain
TTITLE12=Red Headed Stranger
TTITLE13=Heartbreak Hotel
TTITLE14=Rockin' Chair
TTITLE15=This Song For You
TTITLE16=Come On In To My Kitchen
TTITLE17=Detour
TTITLE18=Will The Circle Be Unbroken
TTITLE19=Amazing Grace
TTITLE20=Uncloudy Day
EXTD=
EXTT0=
EXTT1=
EXTT2=
EXTT3=
EXTT4=
EXTT5=
EXTT6=
EXTT7=
EXTT8=
EXTT9=
EXTT10=
EXTT11=
EXTT12=
EXTT13=
EXTT14=
EXTT15=
EXTT16=
EXTT17=
EXTT18=
EXTT19=
EXTT20=
PLAYORDER=
